<?xml version="1.0" encoding="utf-8"?>
<!-- Generator: Adobe Illustrator 22.1.0, SVG Export Plug-In . SVG Version: 6.00 Build 0)  -->
<svg version="1.1" id="Слой_1" xmlns="http://www.w3.org/2000/svg" xmlns:xlink="http://www.w3.org/1999/xlink" x="0px" y="0px"
	 viewBox="0 0 17.9 19.5" style="enable-background:new 0 0 17.9 19.5;" xml:space="preserve">
<style type="text/css">
	.st0{fill:#FFC107;}
	.st1{fill:#131741;}
	.st2{fill:#FFFF2A;}
	.st3{fill:#FEFEFE;}
</style>
<path class="st0" d="M8.9,0.3H0.4l1.7,16.9l6.9,2l6.9-2l1.7-16.9"/>
<path class="st1" d="M2.3,17l6.6,1.9l6.6-1.9l1.7-16.5H0.7L2.3,17z M8.9,19.5l-7.2-2L0,0h17.9l-1.8,17.5L8.9,19.5z"/>
<path class="st2" d="M14.5,16.2l1.5-14.7h-7v16.2"/>
<path class="st3" d="M8.9,15.7l-4.3-1.2l-0.3-3.4L6.3,11l0.1,1.8l2.4,0.8l2.6-1v-2.5L4.1,10L3.9,8l5.2-2.1L3.8,5.8l-0.2-2h10.7
	l-0.1,2.1L9,7.9L13.9,8l-0.5,6.5"/>
</svg>
