<?xml version="1.0" encoding="utf-8"?>
<!-- Generator: Adobe Illustrator 22.1.0, SVG Export Plug-In . SVG Version: 6.00 Build 0)  -->
<svg version="1.1" id="Слой_1" xmlns="http://www.w3.org/2000/svg" xmlns:xlink="http://www.w3.org/1999/xlink" x="0px" y="0px"
	 viewBox="0 0 7.2 7.8" style="enable-background:new 0 0 7.2 7.8;" xml:space="preserve">
<style type="text/css">
	.st0{fill:#FFC107;}
	.st1{fill:#131741;}
	.st2{fill:#FFFF2A;}
	.st3{fill:#FEFEFE;}
</style>
<path class="st0" d="M3.6,0.1H0.2l0.7,6.8l2.8,0.8l2.8-0.8L7,0.1"/>
<path class="st1" d="M0.9,6.8l2.6,0.7l2.6-0.7l0.7-6.6H0.3L0.9,6.8z M3.6,7.8L0.7,7L0,0h7.2L6.4,7L3.6,7.8z"/>
<path class="st2" d="M5.8,6.5l0.6-5.9H3.6v6.5"/>
<path class="st3" d="M3.6,6.3L1.8,5.8L1.7,4.4l0.8,0l0,0.7l1,0.3l1-0.4V4L1.7,4L1.6,3.2l2.1-0.9l-2.1,0L1.4,1.5h4.3l0,0.8L3.6,3.2
	l1.9,0L5.4,5.8"/>
</svg>
