<?xml version="1.0" encoding="utf-8"?>
<!-- Generator: Adobe Illustrator 22.1.0, SVG Export Plug-In . SVG Version: 6.00 Build 0)  -->
<svg version="1.1" id="Capa_1" xmlns="http://www.w3.org/2000/svg" xmlns:xlink="http://www.w3.org/1999/xlink" x="0px" y="0px"
	 viewBox="0 0 49.7 49.7" style="enable-background:new 0 0 49.7 49.7;" xml:space="preserve">
<style type="text/css">
	.st0{fill:#44678D;}
	.st1{fill:#FFFFFF;}
</style>
<g>
	<rect class="st0" width="49.7" height="49.7"/>
	<path class="st1" d="M12.9,15.1c1.2,2.9,2.7,5.7,4.7,8.2c0.3,0.3,0.6,0.6,0.9,0.9c0.5,0.4,1,0.2,1.2-0.4c0.2-0.6,0.4-1.9,0.4-2.5
		c0-1.7,0-2.8-0.1-4.5c-0.1-1.1-0.4-2-2-2.3c-0.5-0.1-0.5-0.5-0.2-0.9c0.7-0.8,1.6-1,2.6-1c1.6-0.1,3.2,0,4.8,0c0.7,0,1.3,0.1,2,0.2
		c0.8,0.2,1.3,0.8,1.4,1.6c0.1,0.4,0.1,0.9,0.1,1.3c0,1.8-0.1,3.7-0.2,5.5c0,0.7,0,1.5,0.2,2.2c0.2,1,0.9,1.2,1.6,0.5
		c0.9-0.9,1.6-1.9,2.3-2.9c1.3-1.9,2.3-3.9,3.1-6c0.4-1.1,0.8-1.3,1.9-1.3c2.2,0,4.4,0,6.6,0c0.4,0,0.8,0,1.2,0.2
		c0.6,0.2,0.8,0.7,0.7,1.3c-0.3,1.5-1.1,2.7-2,3.9c-1.4,1.9-2.8,3.8-4.1,5.6c-0.2,0.2-0.3,0.5-0.5,0.8c-0.5,0.9-0.5,1.5,0.3,2.2
		c1.2,1.2,2.5,2.4,3.6,3.7c0.8,0.9,1.6,1.9,2.3,3c0.8,1.3,0.3,2.6-1.3,2.8c-1,0.1-5.9,0-6.1,0c-1.3,0-2.5-0.5-3.4-1.3
		c-1-1-2-2.1-2.9-3.1c-0.3-0.3-0.6-0.6-1-0.9c-0.8-0.6-1.6-0.5-2,0.5c-0.3,0.8-0.6,2.9-0.6,3.1c-0.1,1-0.7,1.6-1.7,1.6
		c-3.1,0.2-6.1-0.2-8.8-1.7c-2.4-1.3-4.2-3-5.9-5.1c-2.6-3.3-4.6-6.9-6.5-10.7c-0.1-0.2-2-4.2-2-4.4c-0.2-0.6,0-1.2,0.5-1.5
		c0.3-0.1,6.6,0,6.7,0C11.8,13.7,12.5,14.1,12.9,15.1z"/>
</g>
</svg>
