<?xml version="1.0" encoding="utf-8"?>
<!-- Generator: Adobe Illustrator 22.1.0, SVG Export Plug-In . SVG Version: 6.00 Build 0)  -->
<svg version="1.1" id="Layer_1" xmlns="http://www.w3.org/2000/svg" xmlns:xlink="http://www.w3.org/1999/xlink" x="0px" y="0px"
	 viewBox="0 0 19.2 11.2" style="enable-background:new 0 0 19.2 11.2;" xml:space="preserve">
<style type="text/css">
	.st0{fill:#FFFFFF;}
</style>
<g>
	<g>
		<path class="st0" d="M18.4,8.6C18,8.1,17.5,7.7,17,7.2c-0.2-0.2-0.3-0.3-0.5-0.5c0,0,0,0,0,0c-0.2-0.2-0.3-0.4-0.3-0.5
			c0-0.1,0.1-0.3,0.2-0.5c0.3-0.4,0.5-0.7,0.8-1.1c0.2-0.3,0.5-0.6,0.7-0.9L18,3.7c0.5-0.6,0.9-1.3,1.2-2.1c0.1-0.2,0.1-0.6,0-0.9
			c-0.2-0.3-0.5-0.4-0.7-0.4c-0.1,0-0.2,0-0.3,0l-2.9,0c-0.5,0-0.9,0.2-1,0.7c-0.2,0.4-0.3,0.8-0.5,1.3c-0.4,0.8-0.9,1.8-1.6,2.5
			l0,0c-0.1,0.1-0.1,0.1-0.2,0.2c-0.1-0.1-0.2-0.3-0.2-0.5c0,0,0,0,0,0l0-3.4c0,0,0,0,0-0.1c-0.1-0.5-0.2-1-1-1.1c0,0,0,0-0.1,0h-3
			C6.9,0,6.6,0.3,6.3,0.5C6.3,0.6,6.1,0.8,6.2,1.1c0.1,0.3,0.4,0.3,0.5,0.3C7,1.5,7.2,1.7,7.2,2.1c0.1,0.7,0.1,1.4,0,2.3
			c0,0.2-0.1,0.4-0.1,0.6c0,0,0,0.1,0,0.1c0,0,0,0-0.1,0C6.8,4.9,6.6,4.6,6.4,4.4c-0.7-1-1.2-2-1.7-3.2C4.5,0.6,4.1,0.4,3.6,0.4
			c-0.9,0-1.8,0-2.6,0c-0.4,0-0.7,0.1-0.8,0.4C0,1,0,1.3,0.1,1.7c1.2,2.6,2.2,4.5,3.5,6.1c0.9,1.2,1.7,2,2.7,2.5
			c1,0.6,2.2,0.9,3.6,0.9c0.2,0,0.3,0,0.5,0c0.8,0,1.2-0.4,1.2-1.2c0-0.4,0.1-0.8,0.2-1.1c0-0.1,0.1-0.1,0.1-0.2c0,0,0.1,0,0.2,0.1
			c0.2,0.1,0.3,0.2,0.4,0.4c0.1,0.1,0.2,0.3,0.3,0.4c0.2,0.3,0.5,0.5,0.7,0.8c0.6,0.6,1.3,0.9,2,0.8l2.7,0c0,0,0,0,0,0c0,0,0,0,0,0
			c0.3,0,0.6-0.2,0.7-0.5c0.2-0.3,0.2-0.8,0-1.1C18.9,9.2,18.6,8.9,18.4,8.6z M18.4,10.4c0,0.1-0.1,0.1-0.1,0.1l-2.7,0c0,0,0,0,0,0
			c0,0,0,0,0,0c-0.5,0-1-0.1-1.4-0.6c-0.2-0.3-0.5-0.5-0.7-0.8c-0.1-0.1-0.2-0.3-0.3-0.4c-0.1-0.2-0.3-0.3-0.6-0.5
			C12.2,8,11.9,8,11.8,8c-0.2,0-0.4,0.2-0.6,0.5c-0.3,0.5-0.3,1-0.3,1.4c0,0.3-0.1,0.4-0.1,0.4c0,0-0.1,0.1-0.4,0.1
			c-1.4,0.1-2.6-0.2-3.6-0.8C5.8,9.2,5,8.4,4.2,7.3C3,5.7,2,3.9,0.8,1.3c0-0.1-0.1-0.2-0.1-0.2c0,0,0.1,0,0.2,0c0.8,0,1.7,0,2.6,0
			c0.1,0,0.3,0,0.4,0.3c0.5,1.3,1.1,2.4,1.8,3.4C6,5.1,6.2,5.4,6.6,5.7c0.3,0.2,0.6,0.2,0.7,0.2c0.2,0,0.4-0.2,0.5-0.5
			C7.9,5.1,8,4.8,8,4.5c0.1-1,0.1-1.8,0-2.5C7.9,1.4,7.6,1,7.2,0.8c0.1,0,0.2-0.1,0.3-0.1h3c0.2,0,0.2,0.1,0.2,0.1
			c0,0.1,0.1,0.2,0.1,0.3l0,3.3c0,0.3,0.1,1,0.7,1.2c0,0,0,0,0,0c0.5,0.2,0.8-0.2,1-0.4l0,0c0.8-0.9,1.4-1.9,1.8-2.7
			c0.2-0.4,0.4-0.9,0.6-1.3c0.1-0.2,0.2-0.2,0.3-0.2c0,0,0,0,0,0l2.9,0c0.1,0,0.1,0,0.2,0c0.1,0,0.2,0.1,0.2,0.1c0,0,0,0.1,0,0.2
			c-0.2,0.7-0.6,1.2-1.1,1.8l-0.1,0.1c-0.2,0.3-0.5,0.6-0.7,0.9c-0.3,0.4-0.5,0.7-0.8,1.1c-0.6,0.8-0.5,1.3,0.2,2
			c0.2,0.2,0.3,0.3,0.5,0.5c0.5,0.4,0.9,0.9,1.3,1.3c0.2,0.2,0.4,0.5,0.6,0.9C18.5,10.1,18.5,10.3,18.4,10.4z"/>
	</g>
</g>
<g>
	<g>
		<path class="st0" d="M2.8,2.4C2.7,2.3,2.7,2.1,2.6,2C2.5,1.8,2.3,1.8,2.1,1.9C1.9,1.9,1.8,2.2,1.9,2.4C2,2.5,2.1,2.6,2.1,2.7
			c0.1,0.1,0.2,0.2,0.3,0.2c0.1,0,0.1,0,0.2,0C2.8,2.8,2.9,2.6,2.8,2.4z"/>
	</g>
</g>
<g>
	<g>
		<path class="st0" d="M5.2,6.3C4.6,5.5,4,4.6,3.4,3.5C3.3,3.3,3.1,3.3,2.9,3.4C2.7,3.5,2.6,3.7,2.7,3.9c0.6,1.1,1.2,2,1.9,2.9
			C4.7,6.9,4.8,7,4.9,7c0.1,0,0.2,0,0.2-0.1C5.3,6.8,5.3,6.5,5.2,6.3z"/>
	</g>
</g>
</svg>
